<svg width="37.9" height="35.4" xmlns="http://www.w3.org/2000/svg">

 <g>
  <title>background</title>
  <rect fill="none" id="canvas_background" height="37.4" width="39.9" y="-1" x="-1"/>
 </g>
 <g>
  <title>Layer 1</title>
  <g id="svg_1">
   <path id="svg_2" d="m21.1,26.3l-14.5,0c-2.2,0 -4,-1.8 -4,-4l0,-14.1c0,-2.2 1.8,-4 4,-4l21.8,0c2.2,0 4,1.8 4,4l0,3.5c0,0.7 -0.6,1.3 -1.3,1.3c-0.7,0 -1.3,-0.6 -1.3,-1.3l0,-3.5c0,-0.8 -0.6,-1.4 -1.4,-1.4l-21.8,0c-0.8,0 -1.4,0.6 -1.4,1.4l0,14.1c0,0.8 0.6,1.4 1.4,1.4l14.5,0c0.7,0 1.3,0.6 1.3,1.3c0,0.7 -0.6,1.3 -1.3,1.3z" fill="#0071BC"/>
   <path id="svg_3" d="m21.7,30.1l-8.4,0c-0.4,0 -0.7,-0.3 -0.7,-0.7l0,-1.2c0,-0.4 0.3,-0.7 0.7,-0.7l8.4,0c0.4,0 0.7,0.3 0.7,0.7l0,1.2c0,0.4 -0.3,0.7 -0.7,0.7z" fill="#0071BC"/>
  </g>
  <path id="svg_16" d="m34.9,21.8l-8.4,-7.2c0,0 -0.4,-0.3 -0.8,-0.2c-0.2,0.1 -0.5,0.4 -0.5,0.9l0,10.6c0,0 0.2,1.3 1.6,0.3l1.9,-1.9l0.8,1.8c0.3,0.6 1,0.9 1.7,0.6l0,0c0.6,-0.3 0.9,-1 0.6,-1.7l-0.8,-1.7l3.3,-0.3c0.1,0.3 1.5,0.1 0.6,-1.2z" fill="#0071BC"/>
 </g>
</svg>