<svg width="36" height="30" xmlns="http://www.w3.org/2000/svg">
 <g>
  <title>background</title>
  <rect x="-1" y="-1" width="38" height="32" id="canvas_background" fill="none"/>
 </g>

 <g>
  <title>Layer 1</title>
  <g stroke="null" id="svg_1">
   <path stroke="null" fill="#0071BC" d="m20.1,24.3l-14.5,0c-2.2,0 -4,-1.8 -4,-4l0,-14.1c0,-2.2 1.8,-4 4,-4l21.8,0c2.2,0 4,1.8 4,4l0,3.5c0,0.7 -0.6,1.3 -1.3,1.3c-0.7,0 -1.3,-0.6 -1.3,-1.3l0,-3.5c0,-0.8 -0.6,-1.4 -1.4,-1.4l-21.8,0c-0.8,0 -1.4,0.6 -1.4,1.4l0,14.1c0,0.8 0.6,1.4 1.4,1.4l14.5,0c0.7,0 1.3,0.6 1.3,1.3c0,0.7 -0.6,1.3 -1.3,1.3z" id="svg_2"/>
   <path stroke="null" fill="#0071BC" d="m20.7,28.1l-8.4,0c-0.4,0 -0.7,-0.3 -0.7,-0.7l0,-1.2c0,-0.4 0.3,-0.7 0.7,-0.7l8.4,0c0.4,0 0.7,0.3 0.7,0.7l0,1.2c0,0.4 -0.3,0.7 -0.7,0.7z" id="svg_3"/>
  </g>
  <path fill="#0071BC" d="m33.9,19.8l-8.4,-7.2c0,0 -0.4,-0.3 -0.8,-0.2c-0.2,0.1 -0.5,0.4 -0.5,0.9l0,10.6c0,0 0.2,1.3 1.6,0.3l1.9,-1.9l0.8,1.8c0.3,0.6 1,0.9 1.7,0.6l0,0c0.6,-0.3 0.9,-1 0.6,-1.7l-0.8,-1.7l3.3,-0.3c0.1,0.3 1.5,0.1 0.6,-1.2z" id="svg_16"/>
 </g>
</svg>