<?xml version="1.0" encoding="utf-8"?>
<!-- Generator: Adobe Illustrator 24.3.0, SVG Export Plug-In . SVG Version: 6.00 Build 0)  -->
<svg version="1.1" id="Layer_1" xmlns="http://www.w3.org/2000/svg" xmlns:xlink="http://www.w3.org/1999/xlink" x="0px" y="0px"
	 width="164.9px" height="35.4px" viewBox="0 0 164.9 35.4" enable-background="new 0 0 164.9 35.4" xml:space="preserve">
<g>
	<path fill="#0071BC" d="M21.1,26.3H6.6c-2.2,0-4-1.8-4-4V8.2c0-2.2,1.8-4,4-4h21.8c2.2,0,4,1.8,4,4v3.5c0,0.7-0.6,1.3-1.3,1.3
		c-0.7,0-1.3-0.6-1.3-1.3V8.2c0-0.8-0.6-1.4-1.4-1.4H6.6c-0.8,0-1.4,0.6-1.4,1.4v14.1c0,0.8,0.6,1.4,1.4,1.4h14.5
		c0.7,0,1.3,0.6,1.3,1.3C22.4,25.7,21.8,26.3,21.1,26.3z"/>
	<path fill="#0071BC" d="M21.7,30.1h-8.4c-0.4,0-0.7-0.3-0.7-0.7v-1.2c0-0.4,0.3-0.7,0.7-0.7h8.4c0.4,0,0.7,0.3,0.7,0.7v1.2
		C22.4,29.8,22.1,30.1,21.7,30.1z"/>
</g>
<g>
	<g>
		<path fill="#21323F" d="M49.6,25.3c-4.4-0.1-6.6-2.7-6.6-7.7c0-5,2.2-7.5,6.7-7.5c4.7,0,6.8,2.9,6.6,8.6h-9.5
			c0.1,2.2,1.1,3.4,2.9,3.4c0.9,0,1.7-0.4,2.4-1.1c0.3-0.4,0.7-0.5,1.2-0.5H56C55.2,23.6,53.2,25.3,49.6,25.3z M46.8,16h5.5
			c-0.2-1.9-1.1-2.9-2.7-2.9C48.1,13.1,47.1,14.1,46.8,16z"/>
		<path fill="#21323F" d="M71.5,8v10.6c0,4.4-2.3,6.6-6.9,6.6c-4.5-0.1-6.8-2.5-6.8-7.4c0-5,1.9-7.5,5.8-7.7c1.8,0,3.2,0.7,4.2,2.3
			V6.1h1.8C70.7,6.1,71.5,7,71.5,8z M61.6,17.6c0,3,1,4.5,3.1,4.5c2.1,0,3.2-1.5,3.2-4.5c-0.1-2.8-1.1-4.2-3.1-4.2
			C62.7,13.4,61.7,14.8,61.6,17.6z"/>
		<path fill="#21323F" d="M94.9,25.3c-4.4-0.1-6.6-2.7-6.6-7.7c0-5,2.2-7.5,6.7-7.5c4.7,0,6.8,2.9,6.6,8.6H92
			c0.1,2.2,1.1,3.4,2.9,3.4c0.9,0,1.7-0.4,2.4-1.1c0.3-0.4,0.7-0.5,1.2-0.5h2.7C100.5,23.6,98.5,25.3,94.9,25.3z M92.1,16h5.5
			c-0.2-1.9-1.1-2.9-2.7-2.9C93.3,13.1,92.4,14.1,92.1,16z"/>
		<path fill="#21323F" d="M116.9,8v10.6c0,4.4-2.3,6.6-6.9,6.6c-4.5-0.1-6.8-2.5-6.8-7.4c0-5,1.9-7.5,5.8-7.7c1.8,0,3.2,0.7,4.2,2.3
			V6.1h1.8C116.1,6.1,116.9,7,116.9,8z M107.1,17.6c0,3,1,4.5,3.1,4.5c2.1,0,3.2-1.5,3.2-4.5c-0.1-2.8-1.1-4.2-3.1-4.2
			C108.2,13.4,107.2,14.8,107.1,17.6z"/>
		<path fill="#21323F" d="M118.6,17.4c0.1-4.7,2.6-7.1,7.5-7.1h0.5v3.8h-1.2c-2,0-3.1,1.1-3.1,3.2V25h-3.7V17.4z"/>
		<path fill="#21323F" d="M130.8,10.3c1.2,0,1.8,0.6,1.8,1.8V25h-3.7V10.3H130.8z"/>
		<path fill="#21323F" d="M148.7,10.3L143.5,25h-3.9l-5.2-14.7h4.1l3,9.6l2.5-8.3c0.3-0.9,0.9-1.3,1.8-1.3H148.7z"/>
		<path fill="#21323F" d="M156,25.3c-4.4-0.1-6.6-2.7-6.6-7.7c0-5,2.2-7.5,6.7-7.5c4.7,0,6.8,2.9,6.6,8.6h-9.5
			c0.1,2.2,1.1,3.4,2.9,3.4c0.9,0,1.7-0.4,2.4-1.1c0.3-0.4,0.7-0.5,1.2-0.5h2.7C161.6,23.6,159.6,25.3,156,25.3z M153.2,16h5.5
			c-0.2-1.9-1.1-2.9-2.7-2.9C154.4,13.1,153.5,14.1,153.2,16z"/>
	</g>
	<path fill="#21323F" d="M79.7,10.3c-4.5,0.1-6.8,2.5-6.8,7.4c0,5,1.9,7.6,5.8,7.6c1.8,0,3.2-0.7,4.2-2.2c0,1.4,0,1.5,0,1.5
		c0,2.3-1,3.4-2.9,3.4c-1.1,0-1.9-0.3-2.3-0.9c-0.4-0.5-0.7-0.7-1.3-0.7h-3.1c0.9,3.1,3,4.7,6.3,4.7c4.7-0.1,7-1.9,7-5.6v-8.7
		C86.6,12.4,84.3,10.2,79.7,10.3z M83,17.8c-0.1,2.8-1.2,4.2-3.2,4.2c-2,0-3-1.4-3.1-4.2c0-3,1-4.4,3.1-4.4C82,13.3,83,14.8,83,17.8
		z"/>
	<circle fill="#21323F" cx="130.7" cy="7.6" r="1.9"/>
</g>
<path fill="#0071BC" d="M34.9,21.8l-8.4-7.2c0,0-0.4-0.3-0.8-0.2c-0.2,0.1-0.5,0.4-0.5,0.9v10.6c0,0,0.2,1.3,1.6,0.3l1.9-1.9
	l0.8,1.8c0.3,0.6,1,0.9,1.7,0.6v0c0.6-0.3,0.9-1,0.6-1.7l-0.8-1.7l3.3-0.3C34.4,23.3,35.8,23.1,34.9,21.8z"/>
</svg>
