<?xml version="1.0" encoding="utf-8"?>
<!-- Generator: Adobe Illustrator 24.3.0, SVG Export Plug-In . SVG Version: 6.00 Build 0)  -->
<svg version="1.1" id="Layer_1" xmlns="http://www.w3.org/2000/svg" xmlns:xlink="http://www.w3.org/1999/xlink" x="0px" y="0px"
	 width="10.6px" height="10.6px" viewBox="0 0 10.6 10.6" enable-background="new 0 0 10.6 10.6" xml:space="preserve">
<path fill-rule="evenodd" clip-rule="evenodd" fill="#748692" d="M9.9,4.1L9.3,4.6L8.8,5.2l-5.6,5.4H0.1V7.4l5.4-5.6L6,1.3l0.6-0.6
	c0.6-0.6,1.6-0.6,2.2,0l1.1,1.1C10.5,2.5,10.5,3.5,9.9,4.1z M7.7,2.9c-0.3-0.3-0.8-0.3-1.1,0L1.9,7.6C1.6,8,1.6,8.5,1.9,8.8
	c0.3,0.3,0.8,0.3,1.1,0l4.7-4.7C8.1,3.8,8.1,3.3,7.7,2.9z"/>
</svg>
