<svg id="Layer_1" data-name="Layer 1" xmlns="http://www.w3.org/2000/svg" viewBox="0 0 9.5 12.8"><path d="M12.2,18.4a4.9,4.9,0,0,0,3.4-1,3.2,3.2,0,0,0,1.2-2.8,2.8,2.8,0,0,0-.6-1.8,2.9,2.9,0,0,0-1.6-1,3,3,0,0,0,1.4-1,3.4,3.4,0,0,0,.5-1.7,3.1,3.1,0,0,0-1.2-2.6,6,6,0,0,0-3.6-.9H7.2V18.4Zm.1-5.6a1.6,1.6,0,0,1,1.8,1.8,1.7,1.7,0,0,1-.5,1.2,2.3,2.3,0,0,1-1.5.5H9.9V12.8ZM9.9,7.7h1.8a2.8,2.8,0,0,1,1.6.4,1.4,1.4,0,0,1,.5,1.3c0,1-.6,1.5-2,1.6H9.9Z" transform="translate(-7.2 -5.6)" fill="#5f6368" fill-rule="evenodd"/></svg>