<svg id="Layer_1" data-name="Layer 1" xmlns="http://www.w3.org/2000/svg" viewBox="0 0 20.4 19.5"><path d="M12.8,7.2l-5,4a12.4,12.4,0,0,0,0,2v2a3.1,3.1,0,0,1-3,3,3,3,0,0,1-3-3c-.1-4.7,5-6,5-6Z" transform="translate(-1.8 -2.2)" fill="#4d82b8" fill-rule="evenodd"/><path d="M21.2,16.9l-7.4,4.6a2,2,0,0,1-2.7-.7L6.5,13.3a1.9,1.9,0,0,1,.7-2.6L14.7,6a1.9,1.9,0,0,1,2.6.8L22,14.2A2,2,0,0,1,21.2,16.9Zm-1.4-2.5L16.2,8.6a1,1,0,0,0-1.4-.4L9,11.8a1.1,1.1,0,0,0-.3,1.4L12.3,19a1,1,0,0,0,1.3.3l5.8-3.6A.9.9,0,0,0,19.8,14.4Z" transform="translate(-1.8 -2.2)" fill="#5f6368" fill-rule="evenodd"/><path d="M17.9,11.2v-6a1.1,1.1,0,0,0-1-1,1,1,0,0,0-1,1V9.5a2.1,2.1,0,0,1,1,1.7,2,2,0,1,1-4,0,2.1,2.1,0,0,1,1-1.7V5.2a3,3,0,0,1,3-3,3.1,3.1,0,0,1,3,3v6Z" transform="translate(-1.8 -2.2)" fill="#5f6368" fill-rule="evenodd"/></svg>