<?xml version="1.0" encoding="UTF-8"?>
<svg width="24px" height="20px" viewBox="0 0 24 20" version="1.1" xmlns="http://www.w3.org/2000/svg" xmlns:xlink="http://www.w3.org/1999/xlink">
   <g id="Page-1" stroke="none" stroke-width="1" fill="none" fill-rule="evenodd">
        <g id="V14-Copy">
            <g id="icon-money-copy">
                <path d="M21.6975537,11.7044585 C22.1685953,11.5344585 22.6067796,11.2957255 23,11.0003662 L23,20 L2,20 L2,7 L11.1260175,7 C11.2173292,7.35477089 11.356089,7.69049357 11.5351288,8 L5,8 L5,8.6074425 C5,9.13394851 4.79238485,9.63921743 4.42221265,10.0136251 C3.47407088,10.9725663 3,12.1346913 3,13.5 C3,14.8652985 3.47406376,16.0274162 4.42219127,16.9863533 C4.79236694,17.3607493 4.99997832,17.8660129 4.99997832,18.392513 L5,19 L20,19 L20,18.4129828 C20,17.8786161 20.21384,17.366471 20.59383,16.9907645 L20.5938413,16.990776 C21.5312804,16.0639043 22,14.9003123 22,13.5 C22,12.8505707 21.8991846,12.2520569 21.6975537,11.7044585 Z" id="note" fill="#606060"></path>
                <path d="M11.0309469,5.5 L0,5.5 L11.0309469,5.5 C11.0309469,5.5 11.0309469,5.5 11.0309469,5.5 Z" id="Combined-Shape" stroke="#ADADAD" stroke-linecap="square"></path>
                <path d="M0.5,5.5 L0.5,17.5" id="Line-2" stroke="#ADADAD" stroke-linecap="square"></path>
                <path d="M16.8959128,9.52302639 C18.1486822,8.84743097 19,7.52313345 19,6 C19,5.04341852 18.6642162,4.16526354 18.1040872,3.47697361 C18.6683232,3.17269154 19.3139944,3 20,3 C22.209139,3 24,4.790861 24,7 C24,9.209139 22.209139,11 20,11 C18.7474425,11 17.6293515,10.4242802 16.8959128,9.52302639 Z" id="Combined-Shape" fill="#E8C25D"></path>
                <path d="M11.338838,4.38633051 C11.122384,3.9716807 11,3.50013251 11,3 C11,1.34314575 12.3431458,0 14,0 C15.4909101,0 16.7278045,1.08757061 16.960614,2.51264259 C16.3812539,2.18622254 15.7123743,2 15,2 C13.3650403,2 11.9591848,2.98091168 11.338838,4.38633051 Z" id="Combined-Shape" fill="#E8C25D"></path>
                <path d="M15,9 C16.6568542,9 18,7.65685425 18,6 C18,4.34314575 16.6568542,3 15,3 C13.3431458,3 12,4.34314575 12,6 C12,7.65685425 13.3431458,9 15,9 Z" id="Oval-Copy-3" fill="#E8C25D"></path>
            </g>
            <g id="Group" transform="translate(5.000000, 2.000000)" fill="#CBCBCB">
                <path d="M7.35828439,7.00362151 C7.98996415,7.55962553 8.79845105,7.9195038 9.68854221,7.98805343 C10.4880995,8.81277251 11,10.0795258 11,11.5 C11,13.9852814 9.43299662,16 7.5,16 C5.56700338,16 4,13.9852814 4,11.5 C4,9.07574524 5.49099201,7.09922742 7.35828439,7.00362151 Z" id="Combined-Shape"></path>
                <circle id="Oval" cx="1.5" cy="11.5" r="1.5"></circle>
                <circle id="Oval" cx="13.5" cy="11.5" r="1.5"></circle>
            </g>
        </g>
    </g>
</svg>
