<?xml version="1.0" encoding="UTF-8" standalone="no"?>
<svg
   xmlns:dc="http://purl.org/dc/elements/1.1/"
   xmlns:cc="http://creativecommons.org/ns#"
   xmlns:rdf="http://www.w3.org/1999/02/22-rdf-syntax-ns#"
   xmlns:svg="http://www.w3.org/2000/svg"
   xmlns="http://www.w3.org/2000/svg"
   xmlns:sodipodi="http://sodipodi.sourceforge.net/DTD/sodipodi-0.dtd"
   xmlns:inkscape="http://www.inkscape.org/namespaces/inkscape"
   version="1.1"
   viewBox="0 0 24 24"
   id="svg10"
   sodipodi:docname="lc_downloadas-doc.svg"
   inkscape:version="0.92.4 (unknown)">
  <metadata
     id="metadata16">
    <rdf:RDF>
      <cc:Work
         rdf:about="">
        <dc:format>image/svg+xml</dc:format>
        <dc:type
           rdf:resource="http://purl.org/dc/dcmitype/StillImage" />
        <dc:title></dc:title>
      </cc:Work>
    </rdf:RDF>
  </metadata>
  <defs
     id="defs14" />
  <sodipodi:namedview
     pagecolor="#ffffff"
     bordercolor="#666666"
     borderopacity="1"
     objecttolerance="10"
     gridtolerance="10"
     guidetolerance="10"
     inkscape:pageopacity="0"
     inkscape:pageshadow="2"
     inkscape:window-width="960"
     inkscape:window-height="1017"
     id="namedview12"
     showgrid="false"
     inkscape:zoom="13.906433"
     inkscape:cx="5.3518336"
     inkscape:cy="8.1366903"
     inkscape:window-x="960"
     inkscape:window-y="30"
     inkscape:window-maximized="0"
     inkscape:current-layer="svg10" />
  <path
     style="fill:#808080"
     d="M 14.2832,21.99991 H 20 v -3.355524 l -5e-5,-1.527236 v -9.0762 c 0,-0.45068 0.09804,-0.42541 -0.60547,-1.0664 l -3.3066,-3.2383 C 15.37836,2.99939 15.37771,2.99992 14.99408,2.99992 H 13.99994 L 5,3 C 4.446,3 4,3.446 4,4 v 17 c 0,0.554 0.446,1 1,1 h 5.1836 m 0.79295,-0.99999 h -5.9766 v -17 h 9 v 4 c 0,0.554 0.446,1 1,1 h 4 v 7.623 L 19,20.120982 v 1.8e-5 0.87891 h -3.1816"
     id="path4"
     inkscape:connector-curvature="0"
     sodipodi:nodetypes="ccccsccsccssscccccsscccccc" />
  <path
     d="m15 8h4l-4-4z"
     fill="#fff"
     fill-rule="evenodd"
     id="path6" />
  <path
     id="path969"
     d="m 2.8007812,11.925781 c -0.6075026,0 -1.1015624,0.492108 -1.1015624,1.09961 v 8.798828 c 0,0.607502 0.4940598,1.101562 1.1015624,1.101562 h 8.7988278 c 0.607502,0 1.09961,-0.49406 1.09961,-1.101562 v -8.798828 c 0,-0.607502 -0.492108,-1.09961 -1.09961,-1.09961 z"
     style="fill:#185abd;stroke-width:0.27500001;fill-opacity:1"
     inkscape:connector-curvature="0"
     sodipodi:nodetypes="sssssssss" />
  <rect
     y="18"
     x="2.949219"
     height="1"
     width="8.5"
     id="rect992"
     style="fill:#fcfcfc;fill-opacity:1;fill-rule:nonzero;stroke-width:13.52637005;stroke-linecap:round;stroke-linejoin:round;stroke-dasharray:13.52637089, 13.52637089;paint-order:markers stroke fill" />
  <rect
     style="fill:#fcfcfc;fill-opacity:1;fill-rule:nonzero;stroke-width:11.36442375;stroke-linecap:round;stroke-linejoin:round;stroke-dasharray:11.36442466, 11.36442466;paint-order:markers stroke fill"
     id="rect1095"
     width="6"
     height="1"
     x="2.949219"
     y="16" />
</svg>
