<?xml version="1.0" encoding="UTF-8" standalone="no"?>
<svg
   xmlns:dc="http://purl.org/dc/elements/1.1/"
   xmlns:cc="http://creativecommons.org/ns#"
   xmlns:rdf="http://www.w3.org/1999/02/22-rdf-syntax-ns#"
   xmlns:svg="http://www.w3.org/2000/svg"
   xmlns="http://www.w3.org/2000/svg"
   xmlns:sodipodi="http://sodipodi.sourceforge.net/DTD/sodipodi-0.dtd"
   xmlns:inkscape="http://www.inkscape.org/namespaces/inkscape"
   version="1.1"
   viewBox="0 0 24 24"
   id="svg10"
   sodipodi:docname="lc_downloadas-pptx.svg"
   inkscape:version="0.92.4 (unknown)">
  <metadata
     id="metadata16">
    <rdf:RDF>
      <cc:Work
         rdf:about="">
        <dc:format>image/svg+xml</dc:format>
        <dc:type
           rdf:resource="http://purl.org/dc/dcmitype/StillImage" />
        <dc:title></dc:title>
      </cc:Work>
    </rdf:RDF>
  </metadata>
  <defs
     id="defs14" />
  <sodipodi:namedview
     pagecolor="#ffffff"
     bordercolor="#666666"
     borderopacity="1"
     objecttolerance="10"
     gridtolerance="10"
     guidetolerance="10"
     inkscape:pageopacity="0"
     inkscape:pageshadow="2"
     inkscape:window-width="960"
     inkscape:window-height="1017"
     id="namedview12"
     showgrid="false"
     inkscape:zoom="9.8333333"
     inkscape:cx="14.505574"
     inkscape:cy="6.7394559"
     inkscape:window-x="960"
     inkscape:window-y="30"
     inkscape:window-maximized="0"
     inkscape:current-layer="svg10" />
  <path
     style="fill:#808080"
     d="M 14.2832,21.99991 H 20 v -3.355524 l -5e-5,-1.527236 v -9.0762 c 0,-0.45068 0.09804,-0.42541 -0.60547,-1.0664 l -3.3066,-3.2383 C 15.37836,2.99939 15.37771,2.99992 14.99408,2.99992 H 13.99994 L 5,3 C 4.446,3 4,3.446 4,4 v 17 c 0,0.554 0.446,1 1,1 h 5.1836 m 0.79295,-0.99999 h -5.9766 v -17 h 9 v 4 c 0,0.554 0.446,1 1,1 h 4 v 7.623 L 19,20.120982 v 1.8e-5 0.87891 h -3.1816"
     id="path4"
     inkscape:connector-curvature="0"
     sodipodi:nodetypes="ccccsccsccssscccccsscccccc" />
  <path
     d="m15 8h4l-4-4z"
     fill="#fff"
     fill-rule="evenodd"
     id="path6" />
  <path
     style="fill:#c43e1c;stroke-width:0.27500001"
     d="m 2.7999501,11.92501 c -0.6075026,0 -1.1000001,0.492498 -1.1000001,1.1 v 8.8 c 0,0.607502 0.4924975,1.1 1.1000001,1.1 H 11.59995 c 0.607502,0 1.1,-0.492498 1.1,-1.1 v -8.8 c 0,-0.607502 -0.492498,-1.1 -1.1,-1.1 z m 2.1999999,2.2 h 2.7097167 c 0.8127348,0 1.4352697,0.182607 1.8669921,0.54624 0.4319972,0.36388 0.6482912,0.890848 0.6482912,1.580713 0,0.442998 -0.107117,0.836846 -0.3206545,1.18164 C 9.690758,17.778673 9.387158,18.046711 8.993358,18.238193 8.5995305,18.429401 8.1430263,18.52501 7.6242664,18.52501 H 6.3744129 v 2.475 H 4.99995 Z m 1.3744629,1.1 v 2.2 h 1.090869 c 0.4252601,0 0.7466689,-0.0959 0.9641114,-0.287354 0.2171674,-0.19173 0.3254883,-0.471387 0.3254883,-0.839502 0,-0.71511 -0.4159968,-1.073144 -1.2487793,-1.073144 z"
     id="path10"
     inkscape:connector-curvature="0" />
</svg>
