<?xml version="1.0" encoding="UTF-8" standalone="no"?>
<svg
   xmlns:dc="http://purl.org/dc/elements/1.1/"
   xmlns:cc="http://creativecommons.org/ns#"
   xmlns:rdf="http://www.w3.org/1999/02/22-rdf-syntax-ns#"
   xmlns:svg="http://www.w3.org/2000/svg"
   xmlns="http://www.w3.org/2000/svg"
   xmlns:sodipodi="http://sodipodi.sourceforge.net/DTD/sodipodi-0.dtd"
   xmlns:inkscape="http://www.inkscape.org/namespaces/inkscape"
   version="1.1"
   viewBox="0 0 24 24"
   id="svg10"
   sodipodi:docname="lc_downloadas-xlsx.svg"
   inkscape:version="0.92.4 (unknown)">
  <metadata
     id="metadata16">
    <rdf:RDF>
      <cc:Work
         rdf:about="">
        <dc:format>image/svg+xml</dc:format>
        <dc:type
           rdf:resource="http://purl.org/dc/dcmitype/StillImage" />
        <dc:title></dc:title>
      </cc:Work>
    </rdf:RDF>
  </metadata>
  <defs
     id="defs14" />
  <sodipodi:namedview
     pagecolor="#ffffff"
     bordercolor="#666666"
     borderopacity="1"
     objecttolerance="10"
     gridtolerance="10"
     guidetolerance="10"
     inkscape:pageopacity="0"
     inkscape:pageshadow="2"
     inkscape:window-width="960"
     inkscape:window-height="1017"
     id="namedview12"
     showgrid="false"
     inkscape:zoom="9.8333333"
     inkscape:cx="13.619383"
     inkscape:cy="11.800549"
     inkscape:window-x="960"
     inkscape:window-y="30"
     inkscape:window-maximized="0"
     inkscape:current-layer="svg10"
     inkscape:snap-bbox="true"
     inkscape:object-paths="true" />
  <path
     style="fill:#808080"
     d="M 14.2832,21.99991 H 20 v -3.355524 l -5e-5,-1.527236 v -9.0762 c 0,-0.45068 0.09804,-0.42541 -0.60547,-1.0664 l -3.3066,-3.2383 C 15.37836,2.99939 15.37771,2.99992 14.99408,2.99992 H 13.99994 L 5,3 C 4.446,3 4,3.446 4,4 v 17 c 0,0.554 0.446,1 1,1 h 5.1836 m 0.79295,-0.99999 h -5.9766 v -17 h 9 v 4 c 0,0.554 0.446,1 1,1 h 4 v 7.623 L 19,20.120982 v 1.8e-5 0.87891 h -3.1816"
     id="path4"
     inkscape:connector-curvature="0"
     sodipodi:nodetypes="ccccsccsccssscccccsscccccc" />
  <path
     d="m15 8h4l-4-4z"
     fill="#fff"
     fill-rule="evenodd"
     id="path6" />
  <path
     sodipodi:nodetypes="sssssssss"
     inkscape:connector-curvature="0"
     style="fill:#fcfcfc;fill-opacity:1;stroke-width:0.27500001"
     d="m 2.8007812,11.925781 c -0.6075026,0 -1.1015624,0.492108 -1.1015624,1.09961 v 8.798828 c 0,0.607502 0.4940598,1.101562 1.1015624,1.101562 h 8.7988278 c 0.607502,0 1.09961,-0.49406 1.09961,-1.101562 v -8.798828 c 0,-0.607502 -0.492108,-1.09961 -1.09961,-1.09961 z"
     id="path1140" />
  <path
     style="fill:#107c41;stroke-width:0.27500001;fill-opacity:1"
     d="M 2.8007812 11.925781 C 2.1932786 11.925781 1.6992188 12.417889 1.6992188 13.025391 L 1.6992188 21.824219 C 1.6992188 22.431721 2.1932786 22.925781 2.8007812 22.925781 L 11.599609 22.925781 C 12.207111 22.925781 12.699219 22.431721 12.699219 21.824219 L 12.699219 13.025391 C 12.699219 12.417889 12.207111 11.925781 11.599609 11.925781 L 2.8007812 11.925781 z M 4.3886719 14.125 L 5.9863281 14.125 L 7.0703125 16.228516 C 7.1699455 16.427946 7.2380456 16.577661 7.2753906 16.675781 L 7.2910156 16.675781 C 7.3629836 16.516281 7.437745 16.361197 7.515625 16.210938 L 8.6738281 14.125 L 10.140625 14.125 L 8.1035156 17.398438 L 10.191406 20.726562 L 8.6308594 20.726562 L 7.3789062 18.416016 C 7.3259963 18.330326 7.2771912 18.227239 7.2304688 18.107422 L 7.2109375 18.107422 C 7.1891855 18.181232 7.1410693 18.28063 7.0664062 18.40625 L 5.7773438 20.726562 L 4.2070312 20.726562 L 6.375 17.416016 L 4.3886719 14.125 z "
     id="path969" />
</svg>
