<?xml version="1.0" encoding="UTF-8" standalone="no"?>
<svg
   xmlns:dc="http://purl.org/dc/elements/1.1/"
   xmlns:cc="http://creativecommons.org/ns#"
   xmlns:rdf="http://www.w3.org/1999/02/22-rdf-syntax-ns#"
   xmlns:svg="http://www.w3.org/2000/svg"
   xmlns="http://www.w3.org/2000/svg"
   xmlns:sodipodi="http://sodipodi.sourceforge.net/DTD/sodipodi-0.dtd"
   xmlns:inkscape="http://www.inkscape.org/namespaces/inkscape"
   version="1.1"
   viewBox="0 0 24 24"
   id="svg10"
   sodipodi:docname="lc_downloadas-docx.svg"
   inkscape:version="0.92.4 (unknown)">
  <metadata
     id="metadata16">
    <rdf:RDF>
      <cc:Work
         rdf:about="">
        <dc:format>image/svg+xml</dc:format>
        <dc:type
           rdf:resource="http://purl.org/dc/dcmitype/StillImage" />
        <dc:title></dc:title>
      </cc:Work>
    </rdf:RDF>
  </metadata>
  <defs
     id="defs14" />
  <sodipodi:namedview
     pagecolor="#ffffff"
     bordercolor="#666666"
     borderopacity="1"
     objecttolerance="10"
     gridtolerance="10"
     guidetolerance="10"
     inkscape:pageopacity="0"
     inkscape:pageshadow="2"
     inkscape:window-width="960"
     inkscape:window-height="1017"
     id="namedview12"
     showgrid="false"
     inkscape:zoom="6.9532167"
     inkscape:cx="3.793373"
     inkscape:cy="14.069235"
     inkscape:window-x="960"
     inkscape:window-y="30"
     inkscape:window-maximized="0"
     inkscape:current-layer="svg10" />
  <path
     style="fill:#808080"
     d="M 14.2832,21.99991 H 20 v -3.355524 l -5e-5,-1.527236 v -9.0762 c 0,-0.45068 0.09804,-0.42541 -0.60547,-1.0664 l -3.3066,-3.2383 C 15.37836,2.99939 15.37771,2.99992 14.99408,2.99992 H 13.99994 L 5,3 C 4.446,3 4,3.446 4,4 v 17 c 0,0.554 0.446,1 1,1 h 5.1836 m 0.79295,-0.99999 h -5.9766 v -17 h 9 v 4 c 0,0.554 0.446,1 1,1 h 4 v 7.623 L 19,20.120982 v 1.8e-5 0.87891 h -3.1816"
     id="path4"
     inkscape:connector-curvature="0"
     sodipodi:nodetypes="ccccsccsccssscccccsscccccc" />
  <path
     d="m15 8h4l-4-4z"
     fill="#fff"
     fill-rule="evenodd"
     id="path6" />
  <path
     id="path969"
     d="m 2.8007812,11.925781 c -0.6075026,0 -1.1015624,0.492108 -1.1015624,1.09961 v 8.798828 c 0,0.607502 0.4940598,1.101562 1.1015624,1.101562 h 8.7988278 c 0.607502,0 1.09961,-0.49406 1.09961,-1.101562 v -8.798828 c 0,-0.607502 -0.492108,-1.09961 -1.09961,-1.09961 z"
     style="fill:#fcfcfc;stroke-width:0.27500001"
     inkscape:connector-curvature="0"
     sodipodi:nodetypes="sssssssss" />
  <path
     style="fill:#185abd;stroke-width:0.27500001;fill-opacity:1"
     d="M 2.8007812 11.925781 C 2.1932786 11.925781 1.6992188 12.417889 1.6992188 13.025391 L 1.6992188 21.824219 C 1.6992188 22.431721 2.1932786 22.925781 2.8007812 22.925781 L 11.599609 22.925781 C 12.207111 22.925781 12.699219 22.431721 12.699219 21.824219 L 12.699219 13.025391 C 12.699219 12.417889 12.207111 11.925781 11.599609 11.925781 L 2.8007812 11.925781 z M 3.3496094 14.400391 L 4.5136719 14.400391 L 5.390625 18.630859 C 5.410125 18.717899 5.4290856 18.83326 5.4472656 18.976562 C 5.4654456 19.120113 5.4767519 19.246596 5.4824219 19.353516 L 5.5039062 19.353516 C 5.5123062 19.252178 5.5270812 19.129878 5.5507812 18.986328 C 5.5744812 18.843026 5.5987037 18.721497 5.6210938 18.623047 L 6.5917969 14.400391 L 7.8496094 14.400391 L 8.8554688 18.560547 C 8.9057988 18.765917 8.9470038 19.025877 8.9804688 19.34375 L 8.9980469 19.34375 C 9.0120169 19.124327 9.0456856 18.872791 9.1015625 18.585938 L 9.90625 14.400391 L 11.050781 14.400391 L 9.6425781 20.449219 L 8.3066406 20.449219 L 7.3457031 16.441406 C 7.3177631 16.325988 7.2868731 16.175969 7.2519531 15.990234 C 7.2170231 15.804747 7.19583 15.670308 7.1875 15.585938 L 7.1699219 15.585938 C 7.1587319 15.684387 7.1376188 15.829453 7.1054688 16.023438 C 7.0733188 16.217643 7.0468338 16.362211 7.0273438 16.455078 L 6.1269531 20.449219 L 4.7695312 20.449219 L 3.3496094 14.400391 z "
     id="path10" />
</svg>
