<?xml version="1.0" encoding="UTF-8" standalone="no"?>
<svg
   xmlns:dc="http://purl.org/dc/elements/1.1/"
   xmlns:cc="http://creativecommons.org/ns#"
   xmlns:rdf="http://www.w3.org/1999/02/22-rdf-syntax-ns#"
   xmlns:svg="http://www.w3.org/2000/svg"
   xmlns="http://www.w3.org/2000/svg"
   xmlns:sodipodi="http://sodipodi.sourceforge.net/DTD/sodipodi-0.dtd"
   xmlns:inkscape="http://www.inkscape.org/namespaces/inkscape"
   version="1.1"
   viewBox="0 0 24 24"
   id="svg10"
   sodipodi:docname="lc_downloadas-ppt.svg"
   inkscape:version="0.92.4 (unknown)">
  <metadata
     id="metadata16">
    <rdf:RDF>
      <cc:Work
         rdf:about="">
        <dc:format>image/svg+xml</dc:format>
        <dc:type
           rdf:resource="http://purl.org/dc/dcmitype/StillImage" />
        <dc:title></dc:title>
      </cc:Work>
    </rdf:RDF>
  </metadata>
  <defs
     id="defs14" />
  <sodipodi:namedview
     pagecolor="#ffffff"
     bordercolor="#666666"
     borderopacity="1"
     objecttolerance="10"
     gridtolerance="10"
     guidetolerance="10"
     inkscape:pageopacity="0"
     inkscape:pageshadow="2"
     inkscape:window-width="960"
     inkscape:window-height="1017"
     id="namedview12"
     showgrid="false"
     inkscape:zoom="13.906433"
     inkscape:cx="15.485129"
     inkscape:cy="3.8533607"
     inkscape:window-x="960"
     inkscape:window-y="30"
     inkscape:window-maximized="0"
     inkscape:current-layer="svg10" />
  <path
     style="fill:#808080"
     d="M 14.2832,21.99991 H 20 v -3.355524 l -5e-5,-1.527236 v -9.0762 c 0,-0.45068 0.09804,-0.42541 -0.60547,-1.0664 l -3.3066,-3.2383 C 15.37836,2.99939 15.37771,2.99992 14.99408,2.99992 H 13.99994 L 5,3 C 4.446,3 4,3.446 4,4 v 17 c 0,0.554 0.446,1 1,1 h 5.1836 m 0.79295,-0.99999 h -5.9766 v -17 h 9 v 4 c 0,0.554 0.446,1 1,1 h 4 v 7.623 L 19,20.120982 v 1.8e-5 0.87891 h -3.1816"
     id="path4"
     inkscape:connector-curvature="0"
     sodipodi:nodetypes="ccccsccsccssscccccsscccccc" />
  <path
     d="m15 8h4l-4-4z"
     fill="#fff"
     fill-rule="evenodd"
     id="path6" />
  <path
     style="fill:#c43e1c;stroke-width:0.27500001"
     d="m 2.7999501,11.92501 c -0.6075026,0 -1.1000001,0.492498 -1.1000001,1.1 v 8.8 c 0,0.607502 0.4924975,1.1 1.1000001,1.1 H 11.59995 c 0.607502,0 1.1,-0.492498 1.1,-1.1 v -8.8 c 0,-0.607502 -0.492498,-1.1 -1.1,-1.1 z"
     id="path10"
     inkscape:connector-curvature="0"
     sodipodi:nodetypes="sssssssss" />
  <path
     style="fill:#fcfcfc;fill-rule:nonzero;stroke-width:10.96845436;stroke-linecap:round;stroke-linejoin:round;stroke-dasharray:10.96845411, 10.96845411;paint-order:markers stroke fill"
     id="path879"
     sodipodi:type="arc"
     sodipodi:cx="6.6999502"
     sodipodi:cy="17.925011"
     sodipodi:rx="3.5"
     sodipodi:ry="3.5"
     sodipodi:start="0"
     sodipodi:end="4.712389"
     d="M 10.19995,17.925011 A 3.5,3.5 0 0 1 8.0393422,21.158589 3.5,3.5 0 0 1 4.2250765,20.399884 3.5,3.5 0 0 1 3.4663719,16.585619 3.5,3.5 0 0 1 6.6999503,14.425011 l -1e-7,3.5 z" />
</svg>
