<svg id="Layer_1" data-name="Layer 1" xmlns="http://www.w3.org/2000/svg" viewBox="0 0 21.3 19.2"><path d="M20.6,8.1A23.8,23.8,0,0,1,16.9,11l1.5,1.6a2,2,0,0,1,0,2.7,1.4,1.4,0,0,1-.8.5l-8-8.3H9.5a1,1,0,0,1,.4-.8,1.8,1.8,0,0,1,2.7,0l1.7,1.8c0-.1,0-.2.2-.6l3-4,.4-.5a2.7,2.7,0,0,1,4,0C23.9,5.5,21.1,7.8,20.6,8.1Z" transform="translate(-1.4 -2.4)" fill="#5f6368" fill-rule="evenodd"/><path d="M8.8,8.4l8.1,8a2.6,2.6,0,0,1-.5.9l-3.6,3.6a2.1,2.1,0,0,1-3.1,0l-.6-.2c.6-.8,1.7-1.6,2.5-2.8-3,2.2-3.6,2-4.1,2.2L3.4,18.4l1.2-2.5L1.7,17.4A2.1,2.1,0,0,1,2,14.7L7.9,8.8a1.6,1.6,0,0,1,.9-.5Z" transform="translate(-1.4 -2.4)" fill="#dbb33a" fill-rule="evenodd"/></svg>