<svg version="1.1" viewBox="0 0 24 24" xmlns="http://www.w3.org/2000/svg">
 <g fill="#808080">
  <path d="m11 12c-0.554 0-1 0.446-1 1v6c0 0.554 0.446 1 1 1h2.9785v-1h-2.9785v-6h3v5.0547c0.01971-0.14081 0.05376-0.30029 0.13672-0.47656 0.15915-0.33818 0.4708-0.60471 0.86328-0.75781v-3.8203c0-0.554-0.446-1-1-1z"/>
  <path d="m15 10c-0.554 0-1 0.446-1 1v7.0547c0.01971-0.14081 0.05376-0.30029 0.13672-0.47656 0.15915-0.33818 0.4708-0.60471 0.86328-0.75781v-5.8203h3v5.3555l1-0.56836v-4.7871c0-0.554-0.446-1-1-1z"/>
  <path d="m8 6c-0.554 0-1 0.446-1 1v12c0 0.554 0.446 1 1 1h2c0.554 0 1-0.446 1-1v-12c0-0.554-0.446-1-1-1z"/>
  <path d="m2.5 19c-0.277 0-0.5 0.223-0.5 0.5s0.223 0.5 0.5 0.5h11.479v-1z"/>
 </g>
 <path d="m15 11h3v8h-3z" fill="#fff"/>
 <path d="m11 13h3v6h-3z" fill="#fff"/>
 <rect transform="scale(-1,1)" x="-5" y="2" width="1" height="20" ry=".5" fill="#808080"/>
 <path d="m2.3077 2.3h20.058v17.872l-0.70312 0.23038-2.2255 1.2969h-17.13z" fill="none" stroke="#4d82b8" stroke-linejoin="round" style="paint-order:stroke markers fill"/>
 <g transform="matrix(.51713 0 0 .51713 14.626 15.235)" fill-rule="evenodd">
  <path d="m7.783 4-1.8028 0.018682-4.0079 0.037365h-0.00781c-0.93566 0.034718-1.5381 0.51244-1.7735 1.0126-0.23537 0.50013-0.18812 1.0061-0.18555 1.1135v4.3922l0.0019531-0.04297c-0.044035 0.4593 0.18652 0.88115 0.50977 1.1209 0.32325 0.23978 0.71366 0.34137 1.1016 0.34749 0.38791 0.0061 0.67678-0.08236 1.0077-0.3176 0.33093-0.23524 0.40012-0.65998 0.36563-1.1247l0.00195 0.0355 0.013672-3.9457z" fill="#4d82b8"/>
  <g fill="#fff" stroke="#808080">
   <path d="m2.6793 6.3619 4.4354 7.5688c0.34068 0.52815 0.8884 0.73117 1.4164 0.46156l6.437-3.6615c0.48963-0.32843 0.71669-0.94529 0.40401-1.4855l-4.4404-7.5775z" stroke-width="1.547"/>
   <ellipse transform="matrix(.87697 -.48054 .51971 .85434 0 0)" cx="3.6834" cy="10.554" rx="1.4556" ry="1.4161" fill="#4d82b8" stroke="#4d82b8" stroke-linecap="round" stroke-width=".78167"/>
  </g>
 </g>
</svg>
