<svg id="Layer_1" data-name="Layer 1" xmlns="http://www.w3.org/2000/svg" viewBox="0 0 15 15"><path d="M14.4,6.4,12.2,8.6a2.1,2.1,0,0,1-2.9,0l2.2-2.2.7-.7a1.1,1.1,0,0,0,0-1.5L10.8,2.8a1.1,1.1,0,0,0-1.5,0l-.7.7L6.4,5.7a2.1,2.1,0,0,1,0-2.9L8.6.6a2.1,2.1,0,0,1,2.9,0l2.9,2.9A2.1,2.1,0,0,1,14.4,6.4ZM4.2,9.3,9.3,4.2l1.5,1.5L5.7,10.8Zm-1.4,0a1.1,1.1,0,0,0,0,1.5l1.4,1.4a1.1,1.1,0,0,0,1.5,0l.7-.7L8.6,9.3a2.1,2.1,0,0,1,0,2.9L6.4,14.4a2.1,2.1,0,0,1-2.9,0L.6,11.5a2.1,2.1,0,0,1,0-2.9L2.8,6.4a2.1,2.1,0,0,1,2.9,0L3.5,8.6Z" transform="translate(0 0)" fill="#1574e6" fill-rule="evenodd"/></svg>