<svg id="Layer_1" data-name="Layer 1" xmlns="http://www.w3.org/2000/svg" viewBox="0 0 21.1 21"><path d="M10.9,2,2,20H4.6l.8-.2a2.1,2.1,0,0,0,.4-.6l1.7-3.6h6.7L17,12.8,14.3,2Zm1.3,3.1a6.9,6.9,0,0,1,.2,1.3,3.7,3.7,0,0,1,.2.9l1.3,5.9H8.6l2.8-5.8a4.2,4.2,0,0,1,.4-1C11.9,6,12.1,5.6,12.2,5.1Z" transform="translate(-1.9 -2)" fill="#5f6368"/><path d="M16.5,20.4,23,13.7,20.3,11l-6.6,6.6Z" transform="translate(-1.9 -2)" fill="#4486d7"/><path d="M13.6,23l.5-.2,1.7-1.7-2.9-2.8-1.7,1.6a.7.7,0,0,0,0,1l1.9,1.9Z" transform="translate(-1.9 -2)" fill="#4486d7"/><rect y="19.1" width="8.3" height="1.82" fill="#5f6368"/></svg>