<svg version="1.1" viewBox="0 0 24 24" xmlns="http://www.w3.org/2000/svg">
 <path d="m8.0488 2-7.0488 20h2.9863c0.32039 0 0.58719-0.09076 0.80078-0.27148 0.2233-0.19076 0.3735-0.3963 0.45117-0.61719l1.209-3.916h7.1211l1.2227 3.9316c0.09709 0.251 0.24729 0.46213 0.45117 0.63281 0.20388 0.16064 0.4766 0.24023 0.81641 0.24023h2.9414l-7.0488-20zm1.9375 3.6445c0.12621 0.49197 0.25074 0.94941 0.37695 1.3711 0.12621 0.41165 0.24873 0.77274 0.36524 1.084l1.9648 6.3242h-5.3867l1.9648-6.3086c0.1068-0.31124 0.2234-0.67792 0.34961-1.0996 0.12621-0.42169 0.24873-0.87913 0.36523-1.3711z" fill="#696969"/>
 <g transform="matrix(.77778 0 0 .77778 8.7204 4.9236)">
  <path transform="matrix(1.2857 0 0 1.2857 -11.212 -6.3304)" d="m16.502 9.5898a1.8667 1.8667 0 0 0-1.8672 1.8672 1.8667 1.8667 0 0 0 1.2441 1.7578v0.73047h-1.2441c-0.34471 0-0.62305 0.27834-0.62305 0.62305 0 0.34471 0.27834 0.62109 0.62305 0.62109h1.2441v5.5566c-1.0596-0.13504-2.0491-0.60396-2.8203-1.3457l0.66016-0.46289a0.61243 0.67872 0 0 0-0.32227-1.2578 0.61243 0.67872 0 0 0-0.33008 0.10937l-2.4883 1.7383a0.61277 0.6791 0 1 0 0.6543 1.1484l0.79492-0.55469c1.1666 1.213 2.7771 1.9128 4.4746 1.9141 1.698-9.33e-4 3.3077-0.70085 4.4746-1.9141l0.79492 0.55469a0.61265 0.67896 0 1 0 0.65234-1.1484l-2.4863-1.7383a0.61243 0.67872 0 0 0-0.33008-0.10937 0.61243 0.67872 0 0 0-0.32422 1.2578l0.66406 0.46484c-0.7723 0.74169-1.7637 1.2118-2.8242 1.3457v-5.5586h1.2461c0.34471 0 0.62109-0.27638 0.62109-0.62109 0-0.34471-0.27638-0.62305-0.62109-0.62305h-1.2461v-0.73047a1.8667 1.8667 0 0 0 1.2461-1.7578 1.8667 1.8667 0 0 0-1.8672-1.8672zm0 1.2441a0.62222 0.62222 0 0 1 0.62109 0.62305 0.62222 0.62222 0 0 1-0.62109 0.62305 0.62222 0.62222 0 0 1-0.62305-0.62305 0.62222 0.62222 0 0 1 0.62305-0.62305zm-1.3652 8.2598a0.64082 0.41984 0 0 0-0.64062 0.41992 0.64082 0.41984 0 0 0 0.64062 0.41992 0.64082 0.41984 0 0 0 0.64062-0.41992 0.64082 0.41984 0 0 0-0.64062-0.41992z" fill="#fff" stroke="#fff" stroke-width="2"/>
  <path d="m10.004 6a2.4 2.4 0 0 0-2.4 2.4 2.4 2.4 0 0 0 1.6 2.261v0.93904h-1.6c-0.4432 0-0.8 0.3568-0.8 0.8 0 0.4432 0.3568 0.8 0.8 0.8h1.6v7.1438c-1.3623-0.17362-2.635-0.77762-3.6266-1.7313l0.85-0.59531a0.78741 0.87264 0 0 0-0.41562-1.6172 0.78741 0.87264 0 0 0-0.425 0.14218l-3.1984 2.2344a0.78769 0.87295 0 1 0 0.84064 1.4766l1.0218-0.71406c1.4999 1.5595 3.5706 2.4593 5.7531 2.461 2.1831-0.0012 4.2544-0.90112 5.7547-2.461l1.0203 0.71406a0.78769 0.87295 0 1 0 0.84064-1.4766l-3.1984-2.2344a0.78741 0.87264 0 0 0-0.425-0.14218 0.78741 0.87264 0 0 0-0.41562 1.6172l0.85472 0.59844c-0.99296 0.9536-2.2678 1.5575-3.6313 1.7297v-7.1453h1.6c0.4432 0 0.8-0.3568 0.8-0.8 0-0.4432-0.3568-0.8-0.8-0.8h-1.6v-0.94064a2.4 2.4 0 0 0 1.6-2.2594 2.4 2.4 0 0 0-2.4-2.4zm0 1.6a0.8 0.8 0 0 1 0.8 0.8 0.8 0.8 0 0 1-0.8 0.8 0.8 0.8 0 0 1-0.8-0.8 0.8 0.8 0 0 1 0.8-0.8z" fill="#4d82b8" stroke-width=".8"/>
 </g>
</svg>
