<svg viewBox="0 0 24 24" xmlns="http://www.w3.org/2000/svg"><path d="m9.8964844 4-7.8964844 16h2.3476562c.2450593 0 .4626205-.068532.6523438-.205078.1897233-.144578.327106-.305715.4140625-.482422l1.4941406-3.216797h6.1660159l.550972 2.332296 2.38247-2.631336-.48227-1.646272-2.556641-10.150391zm1.2109376 2.7832031c.05534.3935744.110682.7583538.166016 1.0957031.06324.3293173.122401.6181916.177734.8671876l1.15039 5.2167972h-4.7089839l2.4199219-5.1914066c.110672-.2570282.2328-.5552288.367188-.8925782.142292-.3373493.285442-.7021287.427734-1.0957031z" fill="#696969"/><path d="m22.008379 11.015652c-.11263-.02069-.229582-.02189-.349814.0022-.256226.05414-.492352.195183-.658476.393444l-7.352978 8.22655-2.633903-2.575268c-.440541-.430791-1.2421489-.430757-1.6827719 0-.440564.430768-.440599 1.214497 0 1.645311l3.5118709 3.433689.91455.858422.804804-.929957 8.194364-9.156507c.581205-.618654.04074-1.75309-.747646-1.897919z" fill="#76a797"/></svg>