<svg id="Layer_1" data-name="Layer 1" xmlns="http://www.w3.org/2000/svg" viewBox="0 0 19.6 17.2"><path d="M2.2,12.7V11.3H21.8v1.4Z" transform="translate(-2.2 -3.4)" fill="#5f6368" fill-rule="evenodd"/><path d="M8.9,12.2l.9.5H17a10.3,10.3,0,0,0-4.2-2.2,9.6,9.6,0,0,1-2.4-1,1.7,1.7,0,0,1-.9-1.4,1.7,1.7,0,0,1,.7-1.4,3.2,3.2,0,0,1,2-.6,2.8,2.8,0,0,1,2,.7A2.2,2.2,0,0,1,15,8.6h3.4a4.3,4.3,0,0,0-.8-2.7,4.6,4.6,0,0,0-2.1-1.8,6.8,6.8,0,0,0-3.2-.7A7.9,7.9,0,0,0,9.1,4,4.8,4.8,0,0,0,6.9,5.7a4.1,4.1,0,0,0-.8,2.4A4.5,4.5,0,0,0,8.9,12.2Z" transform="translate(-2.2 -3.4)" fill="#5f6368" fill-rule="evenodd"/><path d="M13.4,14l.9.5A1.8,1.8,0,0,1,15,16a1.9,1.9,0,0,1-.7,1.4,3.6,3.6,0,0,1-1.9.5C10.1,17.9,9,17,9,15.1H5.6A5.7,5.7,0,0,0,6.4,18a6.5,6.5,0,0,0,2.4,1.9,8.6,8.6,0,0,0,3.6.7,7.4,7.4,0,0,0,4.4-1.2A4.1,4.1,0,0,0,18.4,16a4.2,4.2,0,0,0-.4-2Z" transform="translate(-2.2 -3.4)" fill="#5f6368" fill-rule="evenodd"/></svg>