<?xml version="1.0" encoding="utf-8"?>
<!-- Generator: Adobe Illustrator 24.3.0, SVG Export Plug-In . SVG Version: 6.00 Build 0)  -->
<svg version="1.1" id="Layer_1" xmlns="http://www.w3.org/2000/svg" xmlns:xlink="http://www.w3.org/1999/xlink" x="0px" y="0px"
	 width="16.4px" height="94.9px" viewBox="0 0 16.4 94.9" enable-background="new 0 0 16.4 94.9" xml:space="preserve">
<path fill-rule="evenodd" clip-rule="evenodd" fill="#FDFEFF" d="M9.5,5.8C8.7,5.8,8,5.5,7.5,5L5.6,6.2C5.7,6.5,5.8,6.7,5.8,7
	c0,0.4-0.1,0.7-0.2,1l1.9,1c0.5-0.5,1.2-0.8,2-0.8c1.6,0,2.9,1.3,2.9,2.9S11.1,14,9.5,14s-2.9-1.3-2.9-2.9c0-0.2,0-0.5,0.1-0.7
	L4.5,9.3C4,9.6,3.5,9.8,2.9,9.8C1.3,9.9,0,8.6,0,7s1.3-2.9,2.9-2.9c0.7,0,1.4,0.3,1.9,0.7l1.9-1.4c0-0.2-0.1-0.4-0.1-0.6
	C6.6,1.3,7.9,0,9.5,0s2.9,1.3,2.9,2.9C12.3,4.5,11,5.8,9.5,5.8z M9.5,12.3c0.7,0,1.2-0.6,1.2-1.2c0-0.7-0.6-1.2-1.2-1.2
	s-1.2,0.6-1.2,1.2C8.2,11.8,8.8,12.3,9.5,12.3z M2.9,5.8C2.2,5.8,1.6,6.3,1.6,7s0.6,1.2,1.2,1.2S4.1,7.7,4.1,7S3.6,5.8,2.9,5.8z
	 M9.5,1.6c-0.7,0-1.2,0.6-1.2,1.2C8.3,3.5,8.9,4,9.5,4s1.2-0.6,1.2-1.2S10.1,1.6,9.5,1.6z"/>
<path fill-rule="evenodd" clip-rule="evenodd" fill="#748692" d="M9.8,28l-0.6,0.6l-0.6,0.6L3,34.6H0v-3.2l5.4-5.6L6,25.2l0.6-0.6
	c0.6-0.6,1.6-0.6,2.2,0l1.1,1.1C10.4,26.4,10.4,27.4,9.8,28z M7.7,26.9c-0.3-0.3-0.8-0.3-1.1,0l-4.7,4.7c-0.3,0.3-0.3,0.8,0,1.1
	C2.1,33,2.7,33,3,32.7L7.7,28C8,27.7,8,27.2,7.7,26.9z"/>
<path fill-rule="evenodd" clip-rule="evenodd" fill="#50B484" d="M14,65.6H2c-1.1,0-2-0.9-2-2v-15c0-1.1,0.9-2,2-2c0,0,5,0,8,0l6,6
	v11C16,64.7,15.1,65.6,14,65.6z M14,58.6v-1v-3h-3h-1H7H6H2v3v1v3h4h1h3h1h3V58.6z M11,58.6h2v2h-2V58.6z M11,55.6h2v2h-2V55.6z
	 M7,58.6h3v2H7V58.6z M7,55.6h3v2H7V55.6z M3,57.6v-2h3v2H3z M6,60.6H3v-2h3V60.6z"/>
<path fill-rule="evenodd" clip-rule="evenodd" fill="#8EE2BA" d="M10,46.6l6,6h-6V46.6z"/>
<g>
	<path fill-rule="evenodd" clip-rule="evenodd" fill="#888888" d="M14.9,91.4h-14C0.4,91.4,0,91,0,90.5V80c0-0.5,0.4-0.9,0.9-0.9h14
		c0.5,0,0.9,0.4,0.9,0.9v10.5C15.7,91,15.3,91.4,14.9,91.4z M14,80.9H1.7v8.7H14V80.9z M4.4,92.3h7c0.5,0,0.9,0.4,0.9,0.9
		S11.8,94,11.4,94h-7c-0.5,0-0.9-0.4-0.9-0.9S3.9,92.3,4.4,92.3z"/>
	
		<polyline fill="none" stroke="#888888" stroke-width="1.5" stroke-linecap="round" stroke-linejoin="round" stroke-miterlimit="10" points="
		5.8,85.7 7.3,87.1 10.6,83.8 	"/>
</g>
</svg>
