<?xml version="1.0" encoding="utf-8"?>
<!-- Generator: Adobe Illustrator 24.3.0, SVG Export Plug-In . SVG Version: 6.00 Build 0)  -->
<svg version="1.1" id="Layer_1" xmlns="http://www.w3.org/2000/svg" xmlns:xlink="http://www.w3.org/1999/xlink" x="0px" y="0px"
	 width="16.4px" height="16.4px" viewBox="0 0 16.4 16.4" enable-background="new 0 0 16.4 16.4" xml:space="preserve">
<path fill-rule="evenodd" clip-rule="evenodd" fill="#FFFFFF" d="M11.2,6.8c-0.8,0-1.5-0.3-2-0.8L7.4,7.3c0.1,0.2,0.1,0.5,0.1,0.7
	c0,0.4-0.1,0.7-0.2,1l1.9,1c0.5-0.5,1.2-0.8,2-0.8c1.6,0,2.9,1.3,2.9,2.9c0,1.6-1.3,2.9-2.9,2.9s-2.9-1.3-2.9-2.9
	c0-0.2,0-0.5,0.1-0.7l-2.1-1.1c-0.5,0.3-1,0.5-1.6,0.5c-1.6,0-2.9-1.3-2.9-2.9S3,5.2,4.6,5.2c0.7,0,1.4,0.3,1.9,0.7l1.9-1.4
	c0-0.2-0.1-0.4-0.1-0.6c0-1.6,1.3-2.9,2.9-2.9s2.9,1.3,2.9,2.9C14.1,5.5,12.8,6.8,11.2,6.8z M11.2,13.4c0.7,0,1.2-0.6,1.2-1.2
	c0-0.7-0.6-1.2-1.2-1.2s-1.2,0.6-1.2,1.2C9.9,12.9,10.5,13.4,11.2,13.4z M4.6,6.8c-0.7,0-1.2,0.6-1.2,1.2s0.6,1.2,1.2,1.2
	s1.2-0.6,1.2-1.2S5.3,6.8,4.6,6.8z M11.2,2.7c-0.7,0-1.2,0.6-1.2,1.2c0,0.7,0.6,1.2,1.2,1.2s1.2-0.6,1.2-1.2
	C12.4,3.3,11.9,2.7,11.2,2.7z"/>
</svg>
