<svg width="24.000000000000004" height="24.000000000000004" xmlns="http://www.w3.org/2000/svg">
 <!-- Created with Method Draw - http://github.com/duopixel/Method-Draw/ -->
 <g>
  <title>background</title>
  <rect fill="#fff" id="canvas_background" height="26" width="26" y="-1" x="-1"/>
 </g>
 <g>
  <title>Layer 1</title>
  <path stroke="null" id="svg_1" d="m417.08142,67.17606c28.49933,0.03062 55.72528,4.22402 81.50952,11.22954l-20.40637,29.99244l144.8521,0l-36.22229,-53.30954l-36.19464,-53.2936l-19.05315,28.08231c-35.70862,-11.09431 -74.20387,-17.30331 -114.45922,-17.30331c-185.2924,0 -335.47771,127.63579 -335.47771,285.09706c0,65.3516 26.15552,125.39541 69.68404,173.50273l51.01112,-33.28355c-35.20466,-38.87733 -56.37163,-87.39081 -56.48648,-140.20344c0.2564,-127.30535 121.45569,-230.31543 271.24304,-230.51063l0.00003,0zm265.82903,57.05229l-51.01101,33.29949c35.19579,38.86253 56.36287,87.34544 56.45972,140.17376c-0.25643,127.3043 -121.45569,230.29965 -271.25175,230.50944c-26.54474,-0.02916 -51.93989,-3.6971 -76.1496,-9.83124l19.20306,-28.21841l-144.85145,0l36.1955,53.28004l36.22162,53.35352l20.19409,-29.7811c34.24902,10.13211 70.90396,15.78478 109.18679,15.79948c185.31914,-0.02934 335.47868,-127.66525 335.52221,-285.12663c-0.04353,-65.35146 -26.21764,-125.38061 -69.71916,-173.45834l0,-0.00002z" stroke-width="1.5" fill="#0C372C"/>
  <path id="svg_7" d="m4.8339,20.1815c-2.54696,0 -4.61267,-2.25192 -4.61267,-5.02848l0,0c0.00154,-2.22845 1.33306,-4.10575 3.17275,-4.76365l0,0c0.06381,-1.89406 1.48912,-3.40596 3.24117,-3.40763l0,0c0.56121,0 1.08782,0.15924 1.54525,0.43329l0,0c0.97327,-1.76416 2.74454,-2.94669 4.77258,-2.94753l0,0c3.03437,0.00168 5.50215,2.64414 5.57211,5.93277l0,0c1.81586,0.67382 3.12278,2.54273 3.12432,4.75275l0,0c0,2.77656 -2.06571,5.02848 -4.61267,5.02848l0,0l-12.20283,0l0,0zm12.7625,-8.31794c-0.39285,-0.07962 -0.66422,-0.471 -0.62655,-0.90429l0,0c0.01307,-0.14331 0.02076,-0.28159 0.02076,-0.41653l0,0c-0.00538,-2.42959 -1.80817,-4.39573 -4.03686,-4.39908l0,0c-1.72898,-0.00168 -3.19966,1.1884 -3.77547,2.85785l0,0c-0.09379,0.2707 -0.31212,0.47268 -0.57505,0.52799l0,0c-0.26138,0.05531 -0.53353,-0.04358 -0.71266,-0.25897l0,0c-0.31981,-0.37965 -0.75802,-0.61264 -1.25542,-0.61264l0,0c-0.94175,0.00168 -1.70361,0.83221 -1.70669,1.85886l0,0c0,0.11398 0.01307,0.23131 0.0346,0.35535l0,0c0.03767,0.22293 -0.00615,0.45256 -0.12531,0.63862l0,0c-0.11916,0.18689 -0.30136,0.31093 -0.50509,0.34697l0,0c-1.46068,0.26232 -2.57695,1.63342 -2.57541,3.29449l0,0c0.00308,1.85132 1.37765,3.34813 3.07588,3.35316l0,0l12.2036,0c1.69823,-0.00503 3.0705,-1.50184 3.07435,-3.35316l0,0c0.00308,-1.64012 -1.08398,-3.00033 -2.51468,-3.28863l0,0" fill-opacity="null" stroke-opacity="null" stroke-width="1.5" stroke="null" fill="#007fff"/>
  <path id="svg_8" d="m51.42171,50.05327c-0.01656,0 -0.03,-0.01343 -0.03,-0.03l0,0c0.00001,-0.01329 0.00867,-0.02449 0.02063,-0.02842l0,0c0.00041,-0.0113 0.00968,-0.02032 0.02108,-0.02033l0,0c0.00365,0 0.00707,0.00095 0.01005,0.00258l0,0c0.00633,-0.01052 0.01785,-0.01758 0.03104,-0.01758l0,0c0.01973,0.00001 0.03578,0.01577 0.03624,0.03539l0,0c0.01181,0.00402 0.02031,0.01517 0.02032,0.02835l0,0c0,0.01656 -0.01343,0.03 -0.03,0.03l0,0l-0.07936,0l0,0zm0.083,-0.04962c-0.00255,-0.00047 -0.00432,-0.00281 -0.00407,-0.00539l0,0c0.00008,-0.00085 0.00013,-0.00168 0.00013,-0.00248l0,0c-0.00003,-0.01449 -0.01176,-0.02622 -0.02625,-0.02624l0,0c-0.01124,-0.00001 -0.02081,0.00709 -0.02455,0.01705l0,0c-0.00061,0.00161 -0.00203,0.00282 -0.00374,0.00315l0,0c-0.0017,0.00033 -0.00347,-0.00026 -0.00463,-0.00154l0,0c-0.00208,-0.00226 -0.00493,-0.00365 -0.00816,-0.00365l0,0c-0.00612,0.00001 -0.01108,0.00496 -0.0111,0.01109l0,0c0,0.00068 0.00008,0.00138 0.00022,0.00212l0,0c0.00024,0.00133 -0.00004,0.0027 -0.00081,0.00381l0,0c-0.00077,0.00111 -0.00196,0.00185 -0.00328,0.00207l0,0c-0.0095,0.00156 -0.01676,0.00974 -0.01675,0.01965l0,0c0.00002,0.01104 0.00896,0.01997 0.02,0.02l0,0l0.07937,0c0.01104,-0.00003 0.01997,-0.00896 0.01999,-0.02l0,0c0.00002,-0.00978 -0.00705,-0.0179 -0.01635,-0.01962l0,0" fill-opacity="null" stroke-opacity="null" stroke-width="1.5" stroke="null" fill="#007fff"/>
  <path id="svg_12" d="m8.04303,13.62372l0.7675,-0.97941l2.10256,2.68178l3.50489,-4.46963l0.76777,0.97872l-4.27267,5.44974" fill-opacity="null" stroke-opacity="null" stroke-width="3.5" stroke="null" fill="#007fff"/>
  <path id="svg_13" d="m79.82383,65.63828l0.07675,-0.01415l0.21026,0.03874l0.3505,-0.06457l0.07678,0.01414l-0.42727,0.07873" fill-opacity="null" stroke-opacity="null" stroke-width="3.5" stroke="null" fill="#007fff"/>
  <path id="svg_14" d="m32.20687,121.78367l0.01414,-0.01415l0.03875,0.03874l0.06459,-0.06457l0.01415,0.01414l-0.07874,0.07873" fill-opacity="null" stroke-opacity="null" stroke-width="3.5" stroke="null" fill="#007fff"/>
  <path id="svg_15" d="m-48.81307,-124.82964l0.01414,-0.01415l0.03875,0.03874l0.06459,-0.06457l0.01415,0.01414l-0.07874,0.07873" fill-opacity="null" stroke-opacity="null" stroke-width="3.5" stroke="null" fill="#007fff"/>
  <path id="svg_16" d="m4.66943,20.16364c-2.46207,0 -4.45892,-1.94484 -4.45892,-4.34278l0,0c0.00149,-1.92457 1.28863,-3.54588 3.06699,-4.11406l0,0c0.06168,-1.63578 1.43949,-2.94151 3.13313,-2.94296l0,0c0.5425,0 1.05156,0.13752 1.49374,0.3742l0,0c0.94083,-1.52359 2.65306,-2.54487 4.61349,-2.54559l0,0c2.93322,0.00145 5.31875,2.28358 5.38637,5.12375l0,0c1.75533,0.58193 3.01869,2.196 3.02017,4.10465l0,0c0,2.39794 -1.99685,4.34278 -4.45892,4.34278l0,0l-11.79607,0l0,0zm12.33708,-7.18368c-0.37975,-0.06876 -0.64208,-0.40677 -0.60567,-0.78098l0,0c0.01263,-0.12377 0.02007,-0.2432 0.02007,-0.35973l0,0c-0.0052,-2.09829 -1.7479,-3.79631 -3.9023,-3.79921l0,0c-1.67135,-0.00145 -3.093,1.02634 -3.64962,2.46814l0,0c-0.09066,0.23379 -0.30172,0.40822 -0.55588,0.45599l0,0c-0.25267,0.04777 -0.51575,-0.03764 -0.6889,-0.22365l0,0c-0.30915,-0.32788 -0.73275,-0.5291 -1.21357,-0.5291l0,0c-0.91036,0.00145 -1.64683,0.71873 -1.6498,1.60538l0,0c0,0.09844 0.01263,0.19977 0.03344,0.30689l0,0c0.03641,0.19253 -0.00595,0.39085 -0.12113,0.55153l0,0c-0.11519,0.16141 -0.29132,0.26853 -0.48825,0.29965l0,0c-1.41199,0.22655 -2.49105,1.41068 -2.48956,2.84524l0,0c0.00297,1.59887 1.33173,2.89157 2.97336,2.89591l0,0l11.79681,0c1.64162,-0.00434 2.96815,-1.29704 2.97187,-2.89591l0,0c0.00297,-1.41647 -1.04785,-2.59119 -2.43085,-2.84018l0,0" fill-opacity="null" stroke-opacity="null" stroke-width="3.5" stroke="null" fill="#007fff"/>
  <path id="svg_17" d="m44.3147,54.31748c-0.01656,0 -0.03,-0.01343 -0.03,-0.03l0,0c0.00001,-0.01329 0.00867,-0.02449 0.02063,-0.02842l0,0c0.00041,-0.0113 0.00968,-0.02032 0.02108,-0.02033l0,0c0.00365,0 0.00707,0.00095 0.01005,0.00258l0,0c0.00633,-0.01052 0.01785,-0.01758 0.03104,-0.01758l0,0c0.01973,0.00001 0.03578,0.01577 0.03624,0.03539l0,0c0.01181,0.00402 0.02031,0.01517 0.02032,0.02835l0,0c0,0.01656 -0.01343,0.03 -0.03,0.03l0,0l-0.07936,0l0,0zm0.083,-0.04962c-0.00255,-0.00047 -0.00432,-0.00281 -0.00407,-0.00539l0,0c0.00008,-0.00085 0.00013,-0.00168 0.00013,-0.00248l0,0c-0.00003,-0.01449 -0.01176,-0.02622 -0.02625,-0.02624l0,0c-0.01124,-0.00001 -0.02081,0.00709 -0.02455,0.01705l0,0c-0.00061,0.00161 -0.00203,0.00282 -0.00374,0.00315l0,0c-0.0017,0.00033 -0.00347,-0.00026 -0.00463,-0.00154l0,0c-0.00208,-0.00226 -0.00493,-0.00365 -0.00816,-0.00365l0,0c-0.00612,0.00001 -0.01108,0.00496 -0.0111,0.01109l0,0c0,0.00068 0.00008,0.00138 0.00022,0.00212l0,0c0.00024,0.00133 -0.00004,0.0027 -0.00081,0.00381l0,0c-0.00077,0.00111 -0.00196,0.00185 -0.00328,0.00207l0,0c-0.0095,0.00156 -0.01676,0.00974 -0.01675,0.01965l0,0c0.00002,0.01104 0.00896,0.01997 0.02,0.02l0,0l0.07937,0c0.01104,-0.00003 0.01997,-0.00896 0.01999,-0.02l0,0c0.00002,-0.00978 -0.00705,-0.0179 -0.01635,-0.01962l0,0" fill-opacity="null" stroke-opacity="null" stroke-width="3.5" stroke="null" fill="#007fff"/>
  <path id="svg_18" d="m171.53021,37.88118c-0.01656,0 -0.03,-0.10236 -0.03,-0.22857l0,0c0.00001,-0.10129 0.00867,-0.18663 0.02063,-0.21653l0,0c0.00041,-0.08609 0.00968,-0.15482 0.02108,-0.15489l0,0c0.00365,0 0.00707,0.00724 0.01005,0.01969l0,0c0.00633,-0.08019 0.01785,-0.13394 0.03104,-0.13398l0,0c0.01973,0.00008 0.03578,0.12019 0.03624,0.26967l0,0c0.01181,0.03063 0.02031,0.11558 0.02032,0.21603l0,0c0,0.12621 -0.01343,0.22857 -0.03,0.22857l0,0l-0.07936,0l0,0zm0.083,-0.37809c-0.00255,-0.00362 -0.00432,-0.02141 -0.00407,-0.0411l0,0c0.00008,-0.00651 0.00013,-0.0128 0.00013,-0.01893l0,0c-0.00003,-0.11044 -0.01176,-0.19981 -0.02625,-0.19996l0,0c-0.01124,-0.00008 -0.02081,0.05402 -0.02455,0.1299l0,0c-0.00061,0.0123 -0.00203,0.02149 -0.00374,0.024l0,0c-0.0017,0.00251 -0.00347,-0.00198 -0.00463,-0.01177l0,0c-0.00208,-0.01726 -0.00493,-0.02785 -0.00816,-0.02785l0,0c-0.00612,0.00008 -0.01108,0.03783 -0.0111,0.08449l0,0c0,0.00518 0.00008,0.01051 0.00022,0.01615l0,0c0.00024,0.01013 -0.00004,0.02057 -0.00081,0.02903l0,0c-0.00077,0.0085 -0.00196,0.01413 -0.00328,0.01577l0,0c-0.0095,0.01192 -0.01676,0.07425 -0.01675,0.14975l0,0c0.00002,0.08415 0.00896,0.15219 0.02,0.15242l0,0l0.07937,0c0.01104,-0.00023 0.01997,-0.06827 0.01999,-0.15242l0,0c0.00002,-0.07455 -0.00705,-0.13638 -0.01635,-0.14948l0,0" fill-opacity="null" stroke-opacity="null" stroke-width="3.5" stroke="null" fill="#007fff"/>
 </g>
</svg>