<svg width="16" height="16" xmlns="http://www.w3.org/2000/svg">

 <g>
  <title>background</title>
  <rect fill="none" id="canvas_background" height="18" width="18" y="-1" x="-1"/>
 </g>
 <g>
  <title>Layer 1</title>
  <g id="svg_5">
   <path id="svg_6" d="m14.9,13.34455l-14,0c-0.5,0 -0.9,-0.4 -0.9,-0.9l0,-10.5c0,-0.5 0.4,-0.9 0.9,-0.9l14,0c0.5,0 0.9,0.4 0.9,0.9l0,10.5c-0.1,0.5 -0.5,0.9 -0.9,0.9zm-0.9,-10.5l-12.3,0l0,8.7l12.3,0l0,-8.7zm-9.6,11.4l7,0c0.5,0 0.9,0.4 0.9,0.9s-0.5,0.8 -0.9,0.8l-7,0c-0.5,0 -0.9,-0.4 -0.9,-0.9s0.4,-0.8 0.9,-0.8z" fill="#888888" clip-rule="evenodd" fill-rule="evenodd"/>
   <polyline id="svg_7" points="5.800000429153442,7.644545555114746 7.299999952316284,9.044547080993652 10.600000619888306,5.744551658630371 " stroke-miterlimit="10" stroke-linejoin="round" stroke-linecap="round" stroke-width="1.5" stroke="#888888" fill="none"/>
  </g>
 </g>
</svg>