<svg width="16" height="16" xmlns="http://www.w3.org/2000/svg">

 <g>
  <title>background</title>
  <rect fill="none" id="canvas_background" height="18" width="18" y="-1" x="-1"/>
 </g>
 <g>
  <title>Layer 1</title>
  <path id="svg_6" d="m14.9,13.34455l-14,0c-0.5,0 -0.9,-0.4 -0.9,-0.9l0,-10.5c0,-0.5 0.4,-0.9 0.9,-0.9l14,0c0.5,0 0.9,0.4 0.9,0.9l0,10.5c-0.1,0.5 -0.5,0.9 -0.9,0.9zm-0.9,-10.5l-12.3,0l0,8.7l12.3,0l0,-8.7zm-9.6,11.4l7,0c0.5,0 0.9,0.4 0.9,0.9s-0.5,0.8 -0.9,0.8l-7,0c-0.5,0 -0.9,-0.4 -0.9,-0.9s0.4,-0.8 0.9,-0.8z" fill="#888888" clip-rule="evenodd" fill-rule="evenodd"/>
  <path id="svg_11" d="m7.80911,4.08329c0.36574,0.00041 0.71514,0.05719 1.04603,0.15203l-0.26188,0.40606l1.85892,0l-0.46485,-0.72174l-0.46449,-0.72153l-0.24451,0.3802c-0.45826,-0.1502 -0.95228,-0.23426 -1.46888,-0.23426c-2.3779,0 -4.30526,1.72803 -4.30526,3.85985c0,0.88478 0.33566,1.69769 0.89427,2.34901l0.65464,-0.45062c-0.45179,-0.52635 -0.72343,-1.18316 -0.7249,-1.89818c0.00329,-1.72355 1.55867,-3.11818 3.48093,-3.12082l0,0zm3.41145,0.77242l-0.65464,0.45083c0.45168,0.52615 0.72332,1.18255 0.72456,1.89777c-0.00329,1.72354 -1.55867,3.11796 -3.48104,3.1208c-0.34065,-0.00039 -0.66656,-0.05005 -0.97725,-0.1331l0.24644,-0.38204l-1.85891,0l0.46451,0.72134l0.46484,0.72234l0.25916,-0.4032c0.43953,0.13718 0.90993,0.21371 1.40122,0.2139c2.37824,-0.0004 4.30528,-1.72843 4.30584,-3.86025c-0.00056,-0.88478 -0.33646,-1.69749 -0.89472,-2.34841l0,0z" fill="#888888"/>
 </g>
</svg>