<svg width="24" height="24" xmlns="http://www.w3.org/2000/svg">
 <!-- Created with Method Draw - http://github.com/duopixel/Method-Draw/ -->
 <g>
  <title>background</title>
  <rect fill="#fff" id="canvas_background" height="26" width="26" y="-1" x="-1"/>
 </g>
 <g>
  <title>Layer 1</title>
  <path stroke="null" id="svg_1" d="m417.08142,67.17606c28.49933,0.03062 55.72528,4.22402 81.50952,11.22954l-20.40637,29.99244l144.8521,0l-36.22229,-53.30954l-36.19464,-53.2936l-19.05315,28.08231c-35.70862,-11.09431 -74.20387,-17.30331 -114.45922,-17.30331c-185.2924,0 -335.47771,127.63579 -335.47771,285.09706c0,65.3516 26.15552,125.39541 69.68404,173.50273l51.01112,-33.28355c-35.20466,-38.87733 -56.37163,-87.39081 -56.48648,-140.20344c0.2564,-127.30535 121.45569,-230.31543 271.24304,-230.51063l0.00003,0zm265.82903,57.05229l-51.01101,33.29949c35.19579,38.86253 56.36287,87.34544 56.45972,140.17376c-0.25643,127.3043 -121.45569,230.29965 -271.25175,230.50944c-26.54474,-0.02916 -51.93989,-3.6971 -76.1496,-9.83124l19.20306,-28.21841l-144.85145,0l36.1955,53.28004l36.22162,53.35352l20.19409,-29.7811c34.24902,10.13211 70.90396,15.78478 109.18679,15.79948c185.31914,-0.02934 335.47868,-127.66525 335.52221,-285.12663c-0.04353,-65.35146 -26.21764,-125.38061 -69.71916,-173.45834l0,-0.00002z" stroke-width="1.5" fill="#0C372C"/>
  <path stroke="null" id="svg_3" d="m11.70512,3.47758c0.89665,0.00111 1.75323,0.1525 2.56446,0.40542l-0.64203,1.08282l4.55734,0l-1.13963,-1.92464l-1.13876,-1.92407l-0.59945,1.01386c-1.12347,-0.40054 -2.33461,-0.6247 -3.60112,-0.6247c-5.82968,0 -10.55482,4.60806 -10.55482,10.29291c0,2.3594 0.82291,4.52717 2.1924,6.264l1.60491,-1.20164c-1.10761,-1.4036 -1.77357,-3.15509 -1.77718,-5.06179c0.00807,-4.59613 3.82124,-8.31512 8.53386,-8.32217l0,0zm8.36353,2.05977l-1.60491,1.20222c1.10733,1.40306 1.77329,3.15345 1.77634,5.06072c-0.00807,4.59609 -3.82124,8.31455 -8.53414,8.32213c-0.83515,-0.00105 -1.63414,-0.13348 -2.39582,-0.35494l0.60417,-1.01877l-4.55732,0l1.13878,1.92358l1.13961,1.92623l0.63535,-1.07519c1.07754,0.3658 2.23078,0.56988 3.43524,0.57041c5.83052,-0.00106 10.55485,-4.60912 10.55622,-10.29398c-0.00137,-2.3594 -0.82486,-4.52664 -2.19351,-6.2624l0,0z" stroke-opacity="null" stroke-width="1.5" fill="#007fff"/>
 </g>
</svg>