<svg width="86" height="26" xmlns="http://www.w3.org/2000/svg">
 <g>
  <title>background</title>
  <rect x="-1" y="-1" width="88" height="28" id="canvas_background" fill="none"/>
 </g>

 <g>
  <title>Layer 1</title>
  <rect fill="none" x="1.5" y="1.45313" width="83" height="23" id="svg_3" stroke="#444444"/>
  <path fill-rule="evenodd" clip-rule="evenodd" fill="#4d82b8" d="m20.8629,10.87142c-1.25161,0 -2.34678,-0.40714 -3.12903,-1.08572l-2.97258,1.62858c0.15645,0.40714 0.3129,0.67858 0.3129,1.08572c0,0.54286 -0.15645,0.95 -0.3129,1.35714l2.97258,1.35714c0.78226,-0.67858 1.87742,-1.08572 3.12903,-1.08572c2.50322,0 4.5371,1.76428 4.5371,3.93572s-2.03387,3.93572 -4.5371,3.93572s-4.5371,-1.76428 -4.5371,-3.93572c0,-0.27142 0,-0.67858 0.15645,-0.95l-3.44193,-1.49286c-0.78226,0.40714 -1.56452,0.67858 -2.50322,0.67858c-2.50322,0.13572 -4.5371,-1.62858 -4.5371,-3.8s2.03387,-3.93572 4.5371,-3.93572c1.09516,0 2.19033,0.40714 2.97258,0.95l2.97258,-1.9c0,-0.27142 -0.15645,-0.54286 -0.15645,-0.81428c0,-2.03572 2.03387,-3.8 4.5371,-3.8s4.5371,1.76428 4.5371,3.93572c-0.15645,2.17142 -2.19033,3.93572 -4.5371,3.93572l0,0.00001l0,-0.00001l-0.00001,-0.00002zm0,8.82142c1.09516,0 1.87742,-0.81428 1.87742,-1.62858c0,-0.95 -0.93871,-1.62858 -1.87742,-1.62858s-1.87742,0.81428 -1.87742,1.62858c-0.15645,0.95 0.78226,1.62858 1.87742,1.62858zm-10.32581,-8.82142c-1.09516,0 -2.03387,0.67858 -2.03387,1.62858s0.93871,1.62858 1.87742,1.62858s2.03387,-0.67858 2.03387,-1.62858s-0.78226,-1.62858 -1.87742,-1.62858zm10.32581,-5.7c-1.09516,0 -1.87742,0.81428 -1.87742,1.62858c0,0.95 0.93871,1.62858 1.87742,1.62858s1.87742,-0.81428 1.87742,-1.62858s-0.93871,-1.62858 -1.87742,-1.62858z" id="svg_1" stroke-width="0" stroke="null"/>
  <text fill="#4d82b8" stroke-width="0" x="33.78052" y="16.39928" id="svg_2" font-size="26" font-family="Helvetica, Arial, sans-serif" text-anchor="start" xml:space="preserve" transform="matrix(0.6096608638763428,0,0,0.5068226418299986,11.905343651771545,9.449591963611855) " stroke="null" font-weight="bold">Share</text>
 </g>
</svg>