<svg id="Layer_1" data-name="Layer 1" xmlns="http://www.w3.org/2000/svg" viewBox="0 0 12 14"><path d="M15.2,10.8a2.5,2.5,0,0,1-2-.9l-1.7,1.4a1.5,1.5,0,0,1,.1.7,3,3,0,0,1-.2,1l1.9,1a2.7,2.7,0,0,1,1.9-.8,2.9,2.9,0,0,1,0,5.8,2.9,2.9,0,0,1-2.8-2.9,1.7,1.7,0,0,1,.1-.7l-2.1-1a3,3,0,0,1-1.6.5,2.9,2.9,0,0,1,0-5.8,2.3,2.3,0,0,1,1.8.8l1.9-1.4a1.3,1.3,0,0,1-.1-.6A2.9,2.9,0,0,1,15.2,5a2.9,2.9,0,0,1,0,5.8Zm0,6.5A1.2,1.2,0,1,0,14,16.1,1.2,1.2,0,0,0,15.2,17.3ZM8.8,10.8a1.2,1.2,0,0,0,0,2.4,1.2,1.2,0,0,0,0-2.4Zm6.4-4.1A1.2,1.2,0,0,0,14,7.9a1.2,1.2,0,1,0,2.4,0A1.2,1.2,0,0,0,15.2,6.7Z" transform="translate(-6 -5)" fill="#1574e6" fill-rule="evenodd"/></svg>