<?xml version="1.0" encoding="utf-8"?>
<!-- Generator: Adobe Illustrator 24.3.0, SVG Export Plug-In . SVG Version: 6.00 Build 0)  -->
<svg version="1.1" xmlns="http://www.w3.org/2000/svg" xmlns:xlink="http://www.w3.org/1999/xlink" viewBox="0 0 24 24">
<path fill-rule="evenodd" clip-rule="evenodd" fill="#0071bc" d="M9.5,5.8C8.7,5.8,8,5.5,7.5,5L5.6,6.2C5.7,6.5,5.8,6.7,5.8,7
	c0,0.4-0.1,0.7-0.2,1l1.9,1c0.5-0.5,1.2-0.8,2-0.8c1.6,0,2.9,1.3,2.9,2.9S11.1,14,9.5,14s-2.9-1.3-2.9-2.9c0-0.2,0-0.5,0.1-0.7
	L4.5,9.3C4,9.6,3.5,9.8,2.9,9.8C1.3,9.9,0,8.6,0,7s1.3-2.9,2.9-2.9c0.7,0,1.4,0.3,1.9,0.7l1.9-1.4c0-0.2-0.1-0.4-0.1-0.6
	C6.6,1.3,7.9,0,9.5,0s2.9,1.3,2.9,2.9C12.3,4.5,11,5.8,9.5,5.8z M9.5,12.3c0.7,0,1.2-0.6,1.2-1.2c0-0.7-0.6-1.2-1.2-1.2
	s-1.2,0.6-1.2,1.2C8.2,11.8,8.8,12.3,9.5,12.3z M2.9,5.8C2.2,5.8,1.6,6.3,1.6,7s0.6,1.2,1.2,1.2S4.1,7.7,4.1,7S3.6,5.8,2.9,5.8z
	 M9.5,1.6c-0.7,0-1.2,0.6-1.2,1.2C8.3,3.5,8.9,4,9.5,4s1.2-0.6,1.2-1.2S10.1,1.6,9.5,1.6z"/>
</svg>
