<svg width="24" height="24" xmlns="http://www.w3.org/2000/svg">

 <g>
  <title>background</title>
  <rect fill="none" id="canvas_background" height="602" width="802" y="-1" x="-1"/>
 </g>
 <g>
  <title>Layer 1</title>
  <path stroke="null" id="svg_1" d="m17.92742,10.35714c-1.50968,0 -2.83065,-0.53571 -3.77419,-1.42857l-3.58548,2.14286c0.18871,0.53571 0.37742,0.89286 0.37742,1.42857c0,0.71429 -0.18871,1.25 -0.37742,1.78571l3.58548,1.78571c0.94355,-0.89286 2.26452,-1.42857 3.77419,-1.42857c3.01935,0 5.47258,2.32143 5.47258,5.17857s-2.45323,5.17857 -5.47258,5.17857s-5.47258,-2.32143 -5.47258,-5.17857c0,-0.35714 0,-0.89286 0.18871,-1.25l-4.15161,-1.96429c-0.94355,0.53571 -1.8871,0.89286 -3.01935,0.89286c-3.01935,0.17857 -5.47258,-2.14286 -5.47258,-5s2.45323,-5.17857 5.47258,-5.17857c1.32097,0 2.64194,0.53571 3.58548,1.25l3.58548,-2.5c0,-0.35714 -0.18871,-0.71429 -0.18871,-1.07143c0,-2.67857 2.45323,-5 5.47258,-5s5.47258,2.32143 5.47258,5.17857c-0.18871,2.85714 -2.64194,5.17857 -5.47258,5.17857zm0,11.60714c1.32097,0 2.26452,-1.07143 2.26452,-2.14286c0,-1.25 -1.13226,-2.14286 -2.26452,-2.14286s-2.26452,1.07143 -2.26452,2.14286c-0.18871,1.25 0.94355,2.14286 2.26452,2.14286zm-12.45484,-11.60714c-1.32097,0 -2.45323,0.89286 -2.45323,2.14286s1.13226,2.14286 2.26452,2.14286s2.45323,-0.89286 2.45323,-2.14286s-0.94355,-2.14286 -2.26452,-2.14286zm12.45484,-7.5c-1.32097,0 -2.26452,1.07143 -2.26452,2.14286c0,1.25 1.13226,2.14286 2.26452,2.14286s2.26452,-1.07143 2.26452,-2.14286s-1.13226,-2.14286 -2.26452,-2.14286z" fill="#0071bc" clip-rule="evenodd" fill-rule="evenodd"/>
 </g>
</svg>