<svg width="86" height="30" xmlns="http://www.w3.org/2000/svg">
 <g>
  <title>background</title>
  <rect fill="none" id="canvas_background" height="32" width="88" y="-1" x="-1"/>
 </g>

 <g>
  <title>Layer 1</title>
  <rect stroke="#444444" id="svg_3" height="26" width="83" y="2.45313" x="1.5" fill="none"/>
  <path stroke="null" stroke-width="0" id="svg_1" d="m18.8629,13.87142c-1.25161,0 -2.34678,-0.40714 -3.12903,-1.08572l-2.97258,1.62858c0.15645,0.40714 0.3129,0.67858 0.3129,1.08572c0,0.54286 -0.15645,0.95 -0.3129,1.35714l2.97258,1.35714c0.78226,-0.67858 1.87742,-1.08572 3.12903,-1.08572c2.50322,0 4.5371,1.76428 4.5371,3.93572s-2.03387,3.93572 -4.5371,3.93572s-4.5371,-1.76428 -4.5371,-3.93572c0,-0.27142 0,-0.67858 0.15645,-0.95l-3.44193,-1.49286c-0.78226,0.40714 -1.56452,0.67858 -2.50322,0.67858c-2.50322,0.13572 -4.5371,-1.62858 -4.5371,-3.8s2.03387,-3.93572 4.5371,-3.93572c1.09516,0 2.19033,0.40714 2.97258,0.95l2.97258,-1.9c0,-0.27142 -0.15645,-0.54286 -0.15645,-0.81428c0,-2.03572 2.03387,-3.8 4.5371,-3.8s4.5371,1.76428 4.5371,3.93572c-0.15645,2.17142 -2.19033,3.93572 -4.5371,3.93572l0,0.00001l0,-0.00001zm0,8.82142c1.09516,0 1.87742,-0.81428 1.87742,-1.62858c0,-0.95 -0.93871,-1.62858 -1.87742,-1.62858s-1.87742,0.81428 -1.87742,1.62858c-0.15645,0.95 0.78226,1.62858 1.87742,1.62858zm-10.32581,-8.82142c-1.09516,0 -2.03387,0.67858 -2.03387,1.62858s0.93871,1.62858 1.87742,1.62858s2.03387,-0.67858 2.03387,-1.62858s-0.78226,-1.62858 -1.87742,-1.62858zm10.32581,-5.7c-1.09516,0 -1.87742,0.81428 -1.87742,1.62858c0,0.95 0.93871,1.62858 1.87742,1.62858s1.87742,-0.81428 1.87742,-1.62858s-0.93871,-1.62858 -1.87742,-1.62858z" fill="#4d82b8" clip-rule="evenodd" fill-rule="evenodd"/>
  <text font-weight="bold" stroke="null" transform="matrix(0.6096608638763428,0,0,0.5068226418299986,11.905343651771545,9.449591963611855) " xml:space="preserve" text-anchor="start" font-family="Helvetica, Arial, sans-serif" font-size="26" id="svg_2" y="20.34543" x="32.14026" stroke-width="0" fill="#4d82b8">Share</text>
 </g>
</svg>