<svg width="24" height="24" xmlns="http://www.w3.org/2000/svg">
 <g>
  <title>background</title>
  <rect x="-1" y="-1" width="26" height="26" id="canvas_background" fill="none"/>
 </g>

 <g>
  <title>Layer 1</title>
  <path stroke="null" fill-rule="evenodd" clip-rule="evenodd" fill="#4d82b8" d="m17.92742,9.94285c-1.50968,0 -2.83065,-0.51428 -3.77419,-1.37143l-3.58548,2.05715c0.18871,0.51428 0.37742,0.85715 0.37742,1.37143c0,0.68572 -0.18871,1.2 -0.37742,1.71428l3.58548,1.71428c0.94355,-0.85715 2.26452,-1.37143 3.77419,-1.37143c3.01935,0 5.47258,2.22857 5.47258,4.97143s-2.45323,4.97143 -5.47258,4.97143s-5.47258,-2.22857 -5.47258,-4.97143c0,-0.34285 0,-0.85715 0.18871,-1.2l-4.15161,-1.88572c-0.94355,0.51428 -1.8871,0.85715 -3.01935,0.85715c-3.01935,0.17143 -5.47258,-2.05715 -5.47258,-4.8s2.45323,-4.97143 5.47258,-4.97143c1.32097,0 2.64194,0.51428 3.58548,1.2l3.58548,-2.4c0,-0.34285 -0.18871,-0.68572 -0.18871,-1.02857c0,-2.57143 2.45323,-4.8 5.47258,-4.8s5.47258,2.22857 5.47258,4.97143c-0.18871,2.74285 -2.64194,4.97143 -5.47258,4.97143l0,0.00001zm0,11.14285c1.32097,0 2.26452,-1.02857 2.26452,-2.05715c0,-1.2 -1.13226,-2.05715 -2.26452,-2.05715s-2.26452,1.02857 -2.26452,2.05715c-0.18871,1.2 0.94355,2.05715 2.26452,2.05715zm-12.45484,-11.14285c-1.32097,0 -2.45323,0.85715 -2.45323,2.05715s1.13226,2.05715 2.26452,2.05715s2.45323,-0.85715 2.45323,-2.05715s-0.94355,-2.05715 -2.26452,-2.05715zm12.45484,-7.2c-1.32097,0 -2.26452,1.02857 -2.26452,2.05715c0,1.2 1.13226,2.05715 2.26452,2.05715s2.26452,-1.02857 2.26452,-2.05715s-1.13226,-2.05715 -2.26452,-2.05715z" id="svg_1"/>
 </g>
</svg>